<svg xmlns="http://www.w3.org/2000/svg" viewBox="0 0 512 512" width="20" height="20" fill="currentColor">
  <path d="M487.4 315.7l-42.3-24.5c3.7-17.2 5.7-35.1 5.7-53.2s-2-36-5.7-53.2l42.3-24.5c12.6-7.3 16.4-23.5 8.8-36.1l-48.1-83.3c-7.6-12.6-23.7-16.4-36.3-8.8l-42.3 24.5c-27.5-23.8-59.7-42.1-95.4-53.5V8c0-13.8-11.2-24-24-24h-96c-13.8 0-24 11.2-24 24v42.4c-35.7 11.4-67.9 29.7-95.4 53.5l-42.3-24.5C47.4-5.7 31.2-1.9 23.6 10.7L-24.5 94c-7.6 12.6-3.8 28.8 8.8 36.1l42.3 24.5c-3.7 17.2-5.7 35.1-5.7 53.2s2 36 5.7 53.2l-42.3 24.5c-12.6 7.3-16.4 23.5-8.8 36.1l48.1 83.3c7.6 12.6 23.7 16.4 36.3 8.8l42.3-24.5c27.5 23.8 59.7 42.1 95.4 53.5V504c0 13.8 11.2 24 24 24h96c13.8 0 24-11.2 24-24v-42.4c35.7-11.4 67.9-29.7 95.4-53.5l42.3 24.5c12.6 7.6 28.7 3.8 36.3-8.8l48.1-83.3c7.6-12.6 3.8-28.8-8.8-36.1zm-231.4 25.6c-61.8 0-112-50.2-112-112s50.2-112 112-112 112 50.2 112 112-50.2 112-112 112z"/>
</svg>
