<?xml version="1.0" standalone="no"?>
<!DOCTYPE svg PUBLIC "-//W3C//DTD SVG 20010904//EN"
 "http://www.w3.org/TR/2001/REC-SVG-20010904/DTD/svg10.dtd">
<svg version="1.0" xmlns="http://www.w3.org/2000/svg"
 width="512.000000pt" height="512.000000pt" viewBox="0 0 512.000000 512.000000"
 preserveAspectRatio="xMidYMid meet">

<g transform="translate(0.000000,512.000000) scale(0.100000,-0.100000)"
fill="#000000" stroke="none">
<path d="M383 4123 c-61 -21 -136 -92 -164 -155 l-24 -53 0 -1355 0 -1355 24
-53 c14 -31 43 -70 72 -96 92 -83 -115 -76 2269 -76 2384 0 2177 -7 2269 76
29 26 58 65 72 96 l24 53 0 1355 0 1355 -24 53 c-14 31 -43 70 -72 96 -92 83
116 76 -2273 75 -1865 0 -2136 -2 -2173 -16z m4353 -109 c22 -14 51 -42 64
-62 24 -35 25 -40 28 -259 l3 -223 -2271 0 -2271 0 3 223 c3 219 4 224 28 259
13 20 42 48 64 62 l40 26 2136 0 2136 0 40 -26z m94 -864 l0 -220 -2270 0
-2270 0 0 220 0 220 2270 0 2270 0 0 -220z m-2 -1133 l-3 -813 -25 -36 c-13
-20 -42 -48 -64 -62 l-40 -26 -2136 0 -2136 0 -40 26 c-22 14 -51 42 -64 62
l-25 36 -3 813 -2 813 2270 0 2270 0 -2 -813z"/>
<path d="M3651 2634 c-134 -36 -273 -147 -341 -274 l-35 -65 -745 -5 c-552 -4
-751 -8 -770 -17 -135 -65 -150 -250 -28 -330 35 -24 54 -29 125 -32 l83 -3 0
-122 c1 -185 17 -231 101 -274 55 -29 113 -25 168 11 62 41 71 73 71 241 0
118 3 146 14 146 11 0 15 -24 18 -107 3 -78 9 -119 22 -146 47 -96 172 -121
256 -51 51 44 60 71 60 194 l0 110 299 0 c165 0 307 -3 316 -6 9 -4 30 -34 47
-68 42 -84 153 -192 240 -234 37 -18 105 -40 150 -49 278 -52 561 128 632 403
20 78 20 213 1 289 -48 182 -208 342 -390 390 -74 19 -222 19 -294 -1z m230
-84 c238 -44 406 -277 371 -512 -41 -271 -306 -451 -567 -383 -122 32 -233
120 -293 232 -37 70 -67 100 -113 113 -44 13 -679 13 -699 0 -12 -7 -16 -40
-20 -156 -5 -138 -6 -147 -29 -165 -32 -26 -67 -24 -96 6 -24 23 -25 29 -25
159 0 128 -1 136 -22 150 -25 18 -153 22 -178 6 -12 -7 -16 -44 -20 -191 -5
-175 -6 -181 -29 -200 -34 -27 -75 -24 -100 7 -19 25 -21 40 -21 195 0 206 5
199 -142 199 -88 0 -99 2 -125 24 -39 34 -39 98 0 132 l28 24 732 0 733 0 44
23 c34 17 50 34 74 81 99 191 297 293 497 256z"/>
<path d="M3695 2393 c-127 -46 -204 -154 -205 -290 0 -119 59 -221 161 -278
49 -27 62 -30 149 -30 109 0 152 17 221 86 63 63 84 118 84 219 0 97 -19 146
-84 213 -81 86 -217 119 -326 80z m206 -106 c64 -34 102 -93 107 -166 9 -123
-56 -210 -176 -236 -97 -21 -219 62 -241 163 -22 103 22 197 114 245 47 25
143 22 196 -6z"/>
<path d="M1090 2404 c-35 -25 -281 -242 -302 -266 -20 -22 -24 -88 -8 -118 6
-10 80 -80 165 -154 137 -120 160 -136 191 -136 47 0 90 24 109 61 14 25 15
70 13 294 l-3 265 -31 31 c-39 39 -97 49 -134 23z m70 -328 c0 -135 -4 -247
-8 -250 -9 -6 -287 233 -287 246 0 13 268 247 283 247 9 1 12 -54 12 -243z"/>
</g>
</svg>
